<svg id="f27bec14-8703-482c-83ca-6879f5a7d330" data-name="afa57be1-337c-4fef-a2bd-85917493654d" xmlns="http://www.w3.org/2000/svg" xmlns:xlink="http://www.w3.org/1999/xlink" viewBox="0 0 500 583.45"><defs><clipPath id="b857e4bf-3c10-46bc-956f-6c56fd93385a" transform="translate(0)"><path d="M286.45,560.93C517.13,556.11,499.7,338.25,499.7,338.25c1.1-121.34-43.45-200.55-43.45-200.55-32.09,66.07-56.72,87.91-56.72,87.91,5.86-154.26-27.45-174.46-27.45-174.46l-54.74,98.2-16.44-76S289.61,14.86,233.53,0c0,0-25.16,72.12-36.18,136.44,0,0-33.26-8.62-37.55-82.7,0,0-49.69,26.35-55.9,171.87,0,0-13.2-15.06-32.21-88.65C71.69,137-189.95,570.9,286.45,560.93Z" fill="none"/></clipPath><clipPath id="fa489a8f-c426-4058-b601-9f9171d847b3" transform="translate(0)"><ellipse cx="319.82" cy="337.86" rx="41.13" ry="47.98" fill="none"/></clipPath></defs><path d="M286.45,560.93C517.13,556.11,499.7,338.25,499.7,338.25c1.1-121.34-43.45-200.55-43.45-200.55-32.09,66.07-56.72,87.91-56.72,87.91,5.86-154.26-27.45-174.46-27.45-174.46l-54.74,98.2-16.44-76S289.61,14.86,233.53,0c0,0-25.16,72.12-36.18,136.44,0,0-33.26-8.62-37.55-82.7,0,0-49.69,26.35-55.9,171.87,0,0-13.2-15.06-32.21-88.65C71.69,137-189.95,570.9,286.45,560.93Z" transform="translate(0)" fill="#d0651c"/><g clip-path="url(#b857e4bf-3c10-46bc-956f-6c56fd93385a)"><path d="M319.82,582.32C448.39,575,458.65,378.19,458.65,378.19c2.43-109.36-8.79-181.61-8.79-181.61-30.19,59.92-68.7,84-68.7,84,7.19-139.07-14.59-159.11-14.59-159.11l-72,101.5-7-66s1.16-89.79-50-102.52c0,0-21.16,87.76-32,145.85,0,0-36.37-23.87-58.5-84.86,0,0-24.49,47.4,7.94,155.58,0,0-65,7.66-81.58-58.42C73.33,212.66-116.31,607.17,319.82,582.32Z" transform="translate(0)" fill="#df7e2d"/></g><g clip-path="url(#b857e4bf-3c10-46bc-956f-6c56fd93385a)"><path d="M345.45,375.23c-5.27-52.69-21.54-135.33-111.34-123.89-89,11.34-95.42,90.12-95.42,90.12L108.17,488c-54.77,95.34,37.92,84.73,133.31,83.34s67.4,1.77,115.74-7.41c35.69-6.77-14-99.66-14-99.66Z" transform="translate(0)" fill="#f8ce5e"/></g><path d="M146.58,250.45s-30.44-55.89,9.64-75.15,72.87,47.37,72.87,47.37S194.46,265,146.58,250.45Z" transform="translate(0)" fill="#eba129"/><path d="M146.8,312.09s-81,62.54-79.27,126.84,61.66,31.71,61.66,31.71S181.16,420.43,146.8,312.09Z" transform="translate(0)" fill="#261b10"/><path d="M142.24,241.4s28.07-31.92,78.5-32.88l8.93,13.18s-30.59,23.15-44.39,27.91-38.89,1-38.89,1Z" transform="translate(0)" fill="#261b10"/><path d="M260.47,239.47c-16.35,43.72-94.74,51.79-110.36,50.23s-22.38-6.25-27.07-18.22c0,0-6.56-24.44,25-20.82,31.75,3.64,44.23-2.39,53.08-8.12,0,0,22.4-11.14,36.45-30.4C250.51,194.4,270.88,211.62,260.47,239.47Z" transform="translate(0)" fill="#eba129"/><ellipse cx="222.25" cy="370.48" rx="45.79" ry="55.84" fill="#fdfdff"/><ellipse cx="223.26" cy="367.65" rx="27.52" ry="33.57" fill="#261b10"/><ellipse cx="319.82" cy="337.86" rx="41.13" ry="47.98" fill="#fdfdff"/><g clip-path="url(#fa489a8f-c426-4058-b601-9f9171d847b3)"><ellipse cx="335.25" cy="342.44" rx="38.73" ry="27.84" transform="matrix(0.13, -0.99, 0.99, 0.13, -46.71, 631.86)" fill="#261b10"/></g><path d="M350.89,362.84c12.84-4.34,78.12-26.41,104,4.81,16.1,19.43,13.86,55.81-3.48,76.21-24.3,28.58-72,18.44-116.23,9-23.86-5.08-60.75-12.94-62.92-29.93-2.5-19.57,42.16-43,54.46-49.5A157.82,157.82,0,0,1,350.89,362.84Z" transform="translate(0)" fill="#f8ce5e"/><ellipse cx="427.22" cy="385.84" rx="46.06" ry="33.57" fill="#261b10"/><path d="M288.34,442.55s16-2.43,33-20.28c0,0,1.62-1.9,4.33,0S309.44,439,303,442.55,284.29,449.58,288.34,442.55Z" transform="translate(0)" fill="#261b10"/><path d="M348.45,454.37S324.84,451,309.34,437.3c0,0-1.49-1.47-3.68.24s17.83,15.33,23.94,16.66C336.26,455.65,352.3,459.94,348.45,454.37Z" transform="translate(0)" fill="#261b10"/></svg>